<svg xmlns="http://www.w3.org/2000/svg" viewBox="0 0 256 256">
<rect width="256" height="256" rx="32" fill="#111827"/>
<path d="M78 96c0-30 22-52 50-52s50 22 50 52v18c0 14-6 28-18 38l-8 6v20H104v-20l-8-6c-12-10-18-24-18-38z" fill="#e5e7eb"/>
<path d="M98 102c8-8 18-12 30-12s22 4 30 12" fill="none" stroke="#374151" stroke-width="10" stroke-linecap="round"/>
<path d="M96 132h64" stroke="#374151" stroke-width="10" stroke-linecap="round"/>
<path d="M112 112h12M132 112h12" stroke="#111827" stroke-width="10" stroke-linecap="round"/>
<path d="M86 212c8-26 24-42 42-42s34 16 42 42" fill="#9ca3af"/>
<path d="M106 188h44" stroke="#f9fafb" stroke-width="10" stroke-linecap="round"/>
</svg>